<svg width="40" height="41" xmlns="http://www.w3.org/2000/svg" xmlns:xlink="http://www.w3.org/1999/xlink" viewBox="0 0 40.67 40.56"><defs><style>.cls-1{fill:#fff;}.cls-2,.cls-3,.cls-5{fill:#070707;}.cls-2,.cls-5{stroke:#070707;}.cls-2{stroke-width:0.5px;}.cls-4{mask:url(#mask);}.cls-5{stroke-width:0.03px;}</style><mask id="mask" x="17.15" y="15.58" width="13.23" height="13.75" maskUnits="userSpaceOnUse"><g id="path-1-inside-1_169_10" data-name="path-1-inside-1 169 10"><path class="cls-1" d="M30.35,29.29H26v-7.2a5.58,5.58,0,0,0-.17-1.47,2.13,2.13,0,0,0-3.62-.94,2.46,2.46,0,0,0-.75,1.68c0,.16,0,.32,0,.48v7.45H17.18V15.93h4.3v1.79h0l.09-.12a4.82,4.82,0,0,1,1.59-1.49,4.57,4.57,0,0,1,2.35-.51,4.9,4.9,0,0,1,2.51.71A4.63,4.63,0,0,1,30,18.92a8.51,8.51,0,0,1,.36,2.6q0,3.81,0,7.62Z"/></g></mask></defs><g id="Слой_2" data-name="Слой 2"><g id="Слой_1-2" data-name="Слой 1"><path class="cls-2" d="M34.53.25H6.13A5.88,5.88,0,0,0,.25,6.12V34.44a5.88,5.88,0,0,0,5.88,5.87h28.4a5.88,5.88,0,0,0,5.89-5.87V6.12A5.88,5.88,0,0,0,34.53.25Zm3.53,34.19A3.53,3.53,0,0,1,34.53,38H6.13A3.53,3.53,0,0,1,2.6,34.44V6.12A3.53,3.53,0,0,1,6.13,2.6h28.4a3.53,3.53,0,0,1,3.53,3.52Z"/><path class="cls-3" d="M30.35,29.29H26v-7.2a5.58,5.58,0,0,0-.17-1.47,2.13,2.13,0,0,0-3.62-.94,2.46,2.46,0,0,0-.75,1.68c0,.16,0,.32,0,.48v7.45H17.18V15.93h4.3v1.79h0l.09-.12a4.82,4.82,0,0,1,1.59-1.49,4.57,4.57,0,0,1,2.35-.51,4.9,4.9,0,0,1,2.51.71A4.63,4.63,0,0,1,30,18.92a8.51,8.51,0,0,1,.36,2.6q0,3.81,0,7.62Z"/><g class="cls-4"><path class="cls-3" d="M30.35,29.29v0h0v0Zm-4.31,0h0v0h0Zm0-7.2h0Zm-.17-1.47h0Zm-3.62-.94,0,0h0Zm-.75,1.68h0Zm0,.48h0Zm0,7.45v0h0v0Zm-4.31,0h0v0h0Zm0-13.36v0h0v0Zm4.3,0h0v0h0Zm0,1.79h0v0h0Zm0,0v0h0v0Zm.09-.12,0,0h0Zm1.59-1.49v0h0Zm2.35-.51v0h0Zm2.51.71,0,0h0ZM30,18.92h0Zm.36,2.6h0Zm0,7.62h0Zm0,.12H26v.06h4.31Zm-4.28,0Zm0-.2v-7H26c0,2.34,0,4.67,0,7Zm0-7a5.7,5.7,0,0,0-.17-1.48l-.06,0A5.55,5.55,0,0,1,26,22.09Zm-.17-1.48A2,2,0,0,0,24.2,19a2.32,2.32,0,0,0-2,.64l0,.05a2.29,2.29,0,0,1,1.93-.63,1.92,1.92,0,0,1,1.64,1.55Zm-3.67-.95a2.5,2.5,0,0,0-.76,1.7h.06a2.43,2.43,0,0,1,.74-1.65Zm-.76,1.7c0,.16,0,.32,0,.48h.06c0-.16,0-.32,0-.48Zm0,.48v7.25h.06V21.84Zm0,7.25Zm0,.17H17.18v.06h4.31Zm-4.28,0V15.93h-.06V29.29Zm0-13.33h4.3V15.9h-4.3Zm4.27,0Zm0,1.82h0l0-.05,0,0Zm.07,0,.1-.12-.05,0-.1.13Zm.1-.82a5,5,0,0,1,1.57-.81l0,0a4.86,4.86,0,0,0-1.59.83Zm1.57-.78a4.53,4.53,0,0,1,2.34-.51v-.06a4.54,4.54,0,0,0-2.37.51Zm2.34-.51a5,5,0,0,1,2.5.7l0-.05a5,5,0,0,0-2.53-.71Zm2.5.7A4.62,4.62,0,0,1,30,18.93l.06,0a4.61,4.61,0,0,0-1.94-2.62ZM30,18.93a8.4,8.4,0,0,1,.36,2.59h.06A8.57,8.57,0,0,0,30,18.91Zm.36,2.59c0,2.54,0,5.08,0,7.62h.07q0-3.81,0-7.62Zm0,7.62v.15h.06c0-.06,0-.11,0-.16Z"/></g><path class="cls-5" d="M14.54,29.29H10.29V16h4.25V29.29Z"/><path class="cls-5" d="M12.6,9.29a2.24,2.24,0,0,1,1.64.64,2.33,2.33,0,0,1,.65,1.66,2.24,2.24,0,0,1-.65,1.64,2.32,2.32,0,0,1-1.68.64,2.2,2.2,0,0,1-2.28-2.29A2.21,2.21,0,0,1,12.6,9.29Z"/></g></g></svg>